<?xml version="1.0" standalone="no"?><!DOCTYPE svg PUBLIC "-//W3C//DTD SVG 1.1//EN" "http://www.w3.org/Graphics/SVG/1.1/DTD/svg11.dtd"><svg t="1694782218448" class="icon" viewBox="0 0 1024 1024" version="1.1" xmlns="http://www.w3.org/2000/svg" p-id="21984" xmlns:xlink="http://www.w3.org/1999/xlink" width="200" height="200"><path d="M433.777778 952.888889C626.218667 952.888889 796.444444 788.252444 796.444444 519.111111c0 0.824889-725.333333-0.113778-725.333333 0C71.111111 793.457778 241.336889 952.888889 433.777778 952.888889z" fill="#7E99FF" p-id="21985"></path><path d="M792.476444 355.555556a28.444444 28.444444 0 0 1 28.202667 32.142222l-5.12 38.968889H958.293333a28.444444 28.444444 0 0 1 26.510223 38.769777l-1.080889 2.417778-81.607111 162.816a42.666667 42.666667 0 0 1-35.313778 23.466667l-2.844445 0.085333H785.777778c-22.371556 170.88-167.992889 298.666667-340.337778 298.666667h-23.324444C249.756444 952.888889 104.135111 825.102222 81.777778 654.222222L46.876444 387.697778A28.444444 28.444444 0 0 1 75.079111 355.555556h717.397333z m0 28.444444H75.079111l34.901333 266.524444C130.275556 805.518222 261.134222 921.884444 416.896 924.401778l5.205333 0.042666h23.352889c156.302222 0 288.654222-114.631111 311.395556-268.757333l0.711111-5.162667L792.490667 384z m-2.986666 241.777778h74.481778a14.222222 14.222222 0 0 0 11.804444-6.314667l0.910222-1.536L958.279111 455.111111H811.847111l-22.343111 170.666667zM200.632889 121.6a14.222222 14.222222 0 0 1 19.100444-6.300444c42.951111 21.632 58.922667 57.528889 46.250667 103.480888l-1.137778 3.84c-12.174222 39.736889-17.464889 74.353778-15.971555 103.765334a14.222222 14.222222 0 0 1-28.416 1.450666c-1.564444-30.976 3.413333-66.161778 14.833777-105.6l2.375112-7.950222c10.609778-34.602667 0.967111-57.614222-30.72-73.585778a14.222222 14.222222 0 0 1-6.314667-19.100444zM402.631111 60.814222a14.222222 14.222222 0 0 1 20.110222 0.483556c28.700444 30.094222 38.144 72.163556 28.999111 124.814222A725.76 725.76 0 0 0 440.888889 326.798222a14.222222 14.222222 0 0 1-28.444445 0.625778c-0.981333-44.017778 2.090667-88.632889 9.230223-133.831111l2.048-12.344889c7.708444-44.401778 0.284444-77.383111-21.575111-100.323556a14.222222 14.222222 0 0 1 0.483555-20.110222zM593.393778 146.417778a14.222222 14.222222 0 0 1 20.110222-0.056889c29.525333 29.368889 40.689778 59.733333 31.431111 89.742222l-1.066667 3.2c-8.348444 23.352889-12.060444 52.48-10.979555 87.367111a14.222222 14.222222 0 1 1-28.444445 0.881778c-1.166222-38.215111 2.986667-70.826667 12.657778-97.820444 6.897778-19.328-0.213333-39.879111-23.651555-63.203556a14.222222 14.222222 0 0 1-0.056889-20.110222z" fill="#2F2F2F" p-id="21986"></path></svg>